<svg width="40" height="40" viewBox="0 0 40 40" fill="none" xmlns="http://www.w3.org/2000/svg">
<path d="M40 20C40 31.0457 31.0457 40 20 40C8.9543 40 0 31.0457 0 20C0 8.9543 8.9543 0 20 0C31.0457 0 40 8.9543 40 20Z" fill="black"/>
<path d="M28.4494 26.5069L21.9879 21.8911V17.1505L28.4494 12.5347L31 16.9426L25.8138 19.0218V20.0198L31 22.0574L28.4494 26.5069ZM22.3704 9L21.5202 16.7762L17.3117 19.1465L10 15.9861L12.6356 11.6614L17.0567 14.9881L17.9494 14.4891L17.1842 9.08317L22.3704 9ZM10 23.0139L17.3117 19.8535L21.5202 22.2238L22.3704 30L17.1842 29.9584L17.9494 24.5525L17.0567 24.0535L12.6781 27.3802L10 23.0139Z" fill="white"/>
</svg>
